
        <svg xmlns="http://www.w3.org/2000/svg" xmlns:xlink="http://www.w3.org/1999/xlink" version="1.1" width="3151.1681170204306" 
        height="640.952816166626" viewBox="0 0 3151.1681170204306 640.952816166626">
			
			<g transform="scale(7.558405851021534) translate(10, 10)">
				<defs id="SvgjsDefs2091"></defs><g id="SvgjsG2092" featureKey="nameLeftFeature-0" transform="matrix(2.5714285714285716,0,0,2.5714285714285716,-2.0571445737566267,-0.4285714285714306)" fill="#eeeeee"><path d="M9.84 6 l0 0.58 l-4.22 0 l0 13.42 l-0.58 0 l0 -13.42 l-4.24 0 l0 -0.58 l9.04 0 z M21.5 20 l-0.72 0 l-4.08 -5.38 c-0.2 0.02 -0.4 0.02 -0.6 0.02 l-3.68 0 l0 5.36 l-0.58 0 l0 -14 l4.26 0 c3.14 0 4.8 1.94 4.8 4.3 c0 2.08 -1.22 3.8 -3.56 4.24 z M12.42 14.04 l3.76 0 c2.52 0 4.14 -1.46 4.14 -3.74 c0 -2.32 -1.62 -3.72 -4.14 -3.72 l-3.76 0 l0 7.46 z M34.72 20 l-1.78 -3.98 l-8.04 0 l-1.78 3.98 l-0.62 0 l6.26 -14 l0.3 0 l6.28 14 l-0.62 0 z M25.14 15.46 l7.56 0 l-3.78 -8.46 z M37.52 6 l0 14 l-0.58 0 l0 -14 l0.58 0 z M40.5 19.42 l6.94 0 l0 0.58 l-7.52 0 l0 -14 l0.58 0 l0 13.42 z M50.019999999999996 19.42 l7.28 0 l0 0.58 l-7.68 0 l-0.18 0 l0 -14 l0.58 0 l7.1 0 l0 0.58 l-7.1 0 l0 6.1 l5.66 0 l0 0.58 l-5.66 0 l0 6.16 z M69.06 20 l-0.72 0 l-4.08 -5.38 c-0.2 0.02 -0.4 0.02 -0.6 0.02 l-3.68 0 l0 5.36 l-0.58 0 l0 -14 l4.26 0 c3.14 0 4.8 1.94 4.8 4.3 c0 2.08 -1.22 3.8 -3.56 4.24 z M59.98 14.04 l3.76 0 c2.52 0 4.14 -1.46 4.14 -3.74 c0 -2.32 -1.62 -3.72 -4.14 -3.72 l-3.76 0 l0 7.46 z"></path></g><g id="SvgjsG2093" featureKey="inlineSymbolFeature-0" transform="matrix(0.8668780414468078,0,0,0.8668780414468078,195.6801219874118,-10.944334446546625)" fill="#2eb4ab"><g xmlns="http://www.w3.org/2000/svg"><path d="M24.883,87.375l-1.269-4.736l8.647-2.316l1.89,7.053h4.485l-0.172-0.642l39.892-10.689l3.036,11.331h4.484L84.11,80.78   l8.647-2.316l2.389,8.911h4.484l-20.03-74.75h-4.484l1.048,3.91l-8.648,2.317l-1.668-6.227h-4.484l0.548,2.047L22.019,25.361   l-3.412-12.736h-4.484l1.545,5.768l-8.647,2.317l-2.167-8.084H0.369l20.029,74.75H24.883z M22.269,77.618l-2.467-9.206l8.648-2.316   l2.466,9.205L22.269,77.618z M91.412,73.443l-8.646,2.316l-2.468-9.206l8.648-2.318L91.412,73.443z M87.601,59.217l-8.647,2.316   l-2.467-9.207l8.647-2.316L87.601,59.217z M83.788,44.989l-8.646,2.317L72.674,38.1l8.648-2.317L83.788,44.989z M77.51,21.555   l2.466,9.206l-8.647,2.317l-2.467-9.206L77.51,21.555z M64.901,25.831l10.465,39.055L35.474,75.573L25.009,36.52L64.901,25.831z    M8.366,25.731l8.647-2.317l2.467,9.206l-8.648,2.317L8.366,25.731z M12.177,39.958l8.648-2.317l2.467,9.207l-8.647,2.317   L12.177,39.958z M15.99,54.186l8.647-2.318l2.467,9.207l-8.648,2.316L15.99,54.186z"></path></g></g><g id="SvgjsG2094" featureKey="nameRightFeature-0" transform="matrix(2.517482483904079,0,0,2.517482483904079,283.87412419520393,-0.10489250256608607)" fill="#eeeeee"><path d="M15.76 6 l2.92 0 l0 14 l-2.92 0 l0 -5.66 l-5.64 0 l0 5.66 l-2.92 0 l0 -14 l2.92 0 l0 5.66 l5.64 0 l0 -5.66 z M28.980000000000004 6 l2.92 0 l0 8.92 c0 3.4 -2.46 5.38 -5.4 5.38 s-5.42 -1.98 -5.42 -5.38 l0 -8.92 l2.92 0 l0 8.94 c0 2.04 1.34 2.62 2.5 2.62 c1.14 0 2.48 -0.58 2.48 -2.62 l0 -8.94 z M42.02 12.24 c1.48 0.4 2.88 1.72 2.88 3.66 c0 2.54 -1.6 4.1 -5.08 4.1 l-5.52 0 l0 -14 l5.22 0 c2.9 0 4.36 1.64 4.36 3.52 c0 1.48 -0.96 2.32 -1.86 2.72 z M39.24 8.56 l-2.02 0 l0 2.82 l2.02 0 c1.24 0 1.74 -0.58 1.74 -1.42 c0 -0.9 -0.58 -1.4 -1.74 -1.4 z M39.660000000000004 17.44 c1.6 0 2.32 -0.66 2.32 -1.9 c0 -1.06 -0.72 -1.8 -2.44 -1.8 l-2.32 0 l0 3.7 l2.44 0 z"></path></g>
			</g>
		</svg>
	